<svg xmlns="http://www.w3.org/2000/svg" xmlns:xlink="http://www.w3.org/1999/xlink" width="384" zoomAndPan="magnify" viewBox="0 0 288 206.249992" height="275" preserveAspectRatio="xMidYMid meet" version="1.0"><defs><clipPath id="707ea8845f"><path d="M 0.523438 0 L 287.476562 0 L 287.476562 205.503906 L 0.523438 205.503906 Z M 0.523438 0 " clip-rule="nonzero"/></clipPath><clipPath id="874413a69c"><path d="M 0.523438 0 L 129 0 L 129 205.503906 L 0.523438 205.503906 Z M 0.523438 0 " clip-rule="nonzero"/></clipPath><clipPath id="8705f8ed4c"><path d="M 78.203125 0 L 287 0 L 287 205.503906 L 78.203125 205.503906 Z M 78.203125 0 " clip-rule="nonzero"/></clipPath></defs><g clip-path="url(#707ea8845f)"><path fill="#ffffff" d="M 0.523438 0 L 287.476562 0 L 287.476562 205.503906 L 0.523438 205.503906 Z M 0.523438 0 " fill-opacity="1" fill-rule="nonzero"/></g><g clip-path="url(#874413a69c)"><path fill="#5271ff" d="M 128.808594 0 L 128.808594 153.941406 C 128.808594 182.28125 105.832031 205.257812 77.492188 205.257812 L 77.492188 0 Z M 0.523438 205.25 L 51.839844 205.25 L 51.839844 153.933594 L 0.523438 153.933594 Z M 0.523438 205.25 " fill-opacity="1" fill-rule="nonzero"/></g><g clip-path="url(#8705f8ed4c)"><path fill="#5271ff" d="M 220.125 94.546875 C 228.25 88.585938 233.667969 81.210938 236.417969 72.417969 L 236.585938 71.835938 C 239.753906 61.667969 238.917969 53.960938 234.042969 48.667969 C 229.167969 43.375 221.042969 40.75 209.710938 40.75 L 129.75 40.75 C 175.292969 31.667969 139.539062 0.0429688 174.082031 0.0429688 L 226.292969 0.0429688 C 238.585938 0.0429688 249.042969 1.75 257.667969 5.167969 C 266.253906 8.582031 272.960938 13.417969 277.753906 19.667969 C 282.546875 25.917969 285.378906 33.375 286.253906 42.085938 C 287.128906 50.792969 285.921875 60.417969 282.628906 70.960938 L 282.460938 71.542969 C 278.753906 83.460938 270.796875 101.046875 263.710938 110.046875 C 201.542969 188.589844 125.707031 103.003906 78.203125 205.214844 C 112.457031 58.792969 163.542969 136.128906 220.125 94.546875 Z M 220.125 94.546875 " fill-opacity="1" fill-rule="nonzero"/></g></svg>